<svg xmlns="http://www.w3.org/2000/svg" viewBox="0 0 64 64" id="money-security">
  <path fill="#1f4287" d="M53.51,5.1416a.9987.9987,0,0,0-.9892-.018l-.7627.4155a19.445,19.445,0,0,1-19.2436-.395.9982.9982,0,0,0-1.0292,0,19.4458,19.4458,0,0,1-19.2441.395l-.7622-.4155a1,1,0,0,0-1.4785.8779V27.5287A33.7921,33.7921,0,0,0,31.6441,58.9346a1.0011,1.0011,0,0,0,.7118,0A33.7921,33.7921,0,0,0,53.9994,27.5287V6.0015A1,1,0,0,0,53.51,5.1416Z"></path>
  <circle cx="32" cy="30.001" r="10" fill="#21e6c1"></circle>
  <path fill="#071e3d" d="M32,29.0008a1,1,0,1,1,0-2h2a1,1,0,0,0,0-2H33v-1a1,1,0,0,0-2,0v1.1842a2.9925,2.9925,0,0,0,1,5.8156,1,1,0,1,1,0,2H30a1,1,0,1,0,0,2h1v1a1,1,0,0,0,2,0V34.8164a2.9925,2.9925,0,0,0-1-5.8156Z"></path>
  <path d="M34.5,58.03c-.31.14-.62.28-.94.41-.4.17-.8.34-1.2.49a.9607.9607,0,0,1-.72,0c-.4-.15-.8-.32-1.2-.49-.32-.13-.63-.27-.94-.41A33.8178,33.8178,0,0,1,10.0006,27.5308V6.0015a1.0116,1.0116,0,0,1,.49-.86.9991.9991,0,0,1,.99-.02l.76.42a17.3169,17.3169,0,0,0,2.76,1.22V27.5308A33.8012,33.8012,0,0,0,32,56.73C32.81,57.2,33.64,57.63,34.5,58.03Z" opacity=".25"></path>
  <path d="M33.99,39.8005a10,10,0,1,1,0-19.5994,10.0047,10.0047,0,0,0,0,19.5994Z" opacity=".25"></path>
  <path fill="#fff" d="M53.9994,6.0015V27.5308A33.8178,33.8178,0,0,1,34.5,58.03c-.86-.4-1.69-.83-2.5-1.3A33.8012,33.8012,0,0,0,49,27.5308V6.7615a17.3169,17.3169,0,0,0,2.76-1.22l.76-.42a.9991.9991,0,0,1,.99.02A1.0116,1.0116,0,0,1,53.9994,6.0015Z" opacity=".25"></path>
  <path fill="#fff" d="M30.01,39.8005a10,10,0,1,0,0-19.5994,10.0047,10.0047,0,0,1,0,19.5994Z" opacity=".25"></path>
  <path fill="#27253d" d="M53.51,5.1416a.9987.9987,0,0,0-.9892-.018l-.7627.4155a19.445,19.445,0,0,1-19.2436-.395.9982.9982,0,0,0-1.0292,0,19.4458,19.4458,0,0,1-19.2441.395l-.7622-.4155a1,1,0,0,0-1.4785.8779V27.5287A33.7921,33.7921,0,0,0,31.6441,58.9346a1.0011,1.0011,0,0,0,.7118,0A33.7921,33.7921,0,0,0,53.9994,27.5287V6.0015A1,1,0,0,0,53.51,5.1416ZM51.9994,27.5287A31.7836,31.7836,0,0,1,32,56.9273,31.7836,31.7836,0,0,1,12.0006,27.5287V7.6679A21.46,21.46,0,0,0,32,7.1577a21.46,21.46,0,0,0,19.9994.51Z"></path>
  <path fill="#27253d" d="M32,20.0011a10,10,0,1,0,10,10A10.0108,10.0108,0,0,0,32,20.0011Zm0,17.9995a8,8,0,1,1,8-8A8.009,8.009,0,0,1,32,38.0006Z"></path>
</svg>
